<svg width="24" height="24" viewBox="0 0 24 24" fill="none" xmlns="http://www.w3.org/2000/svg">
<g clip-path="url(#clip0)">
<path d="M14.3 12.179C14.2767 12.1558 14.2582 12.1282 14.2456 12.0978C14.233 12.0674 14.2266 12.0349 14.2266 12.002C14.2266 11.9691 14.233 11.9366 14.2456 11.9062C14.2582 11.8758 14.2767 11.8482 14.3 11.825L23.563 2.563C23.8443 2.28134 24.0021 1.89949 24.0018 1.50144C24.0016 1.10339 23.8432 0.721764 23.5615 0.440502C23.2798 0.159239 22.898 0.0013861 22.4999 0.0016674C22.1019 0.0019487 21.7203 0.160342 21.439 0.442002L12.177 9.7C12.1538 9.72328 12.1262 9.74176 12.0958 9.75436C12.0654 9.76696 12.0329 9.77345 12 9.77345C11.9671 9.77345 11.9346 9.76696 11.9042 9.75436C11.8738 9.74176 11.8462 9.72328 11.823 9.7L2.561 0.442002C2.42173 0.302669 2.25638 0.192131 2.0744 0.1167C1.89241 0.0412688 1.69735 0.00242091 1.50035 0.00237448C1.10249 0.00228071 0.720892 0.160239 0.439497 0.441502C0.158103 0.722764 -3.58898e-05 1.10429 -0.000129658 1.50215C-0.000223426 1.90001 0.157735 2.28161 0.438997 2.563L9.7 11.825C9.72328 11.8482 9.74175 11.8758 9.75435 11.9062C9.76696 11.9366 9.77344 11.9691 9.77344 12.002C9.77344 12.0349 9.76696 12.0674 9.75435 12.0978C9.74175 12.1282 9.72328 12.1558 9.7 12.179L0.438997 21.442C0.299731 21.5813 0.189271 21.7467 0.113925 21.9288C0.0385799 22.1108 -0.000176087 22.3059 -0.000129658 22.5029C-3.58898e-05 22.9007 0.158103 23.2822 0.439497 23.5635C0.57883 23.7028 0.744229 23.8132 0.92625 23.8886C1.10827 23.9639 1.30335 24.0027 1.50035 24.0026C1.89821 24.0025 2.27974 23.8444 2.561 23.563L11.823 14.3C11.8462 14.2767 11.8738 14.2582 11.9042 14.2456C11.9346 14.233 11.9671 14.2266 12 14.2266C12.0329 14.2266 12.0654 14.233 12.0958 14.2456C12.1262 14.2582 12.1538 14.2767 12.177 14.3L21.439 23.563C21.7203 23.8444 22.1018 24.0025 22.4996 24.0026C22.8975 24.0027 23.2791 23.8448 23.5605 23.5635C23.8419 23.2822 24 22.9007 24.0001 22.5029C24.0002 22.105 23.8423 21.7234 23.561 21.442L14.3 12.179Z" fill="#111111"/>
</g>
<defs>
<clipPath id="clip0">
<path d="M0 0H24V24H0V0Z" fill="white"/>
</clipPath>
</defs>
</svg>
