<svg width="24" height="24" viewBox="0 0 24 24" fill="none" xmlns="http://www.w3.org/2000/svg">
<g clip-path="url(#clip0)">
<path d="M8.25 6.003C7.65343 6.00247 7.08144 5.76525 6.65959 5.3434C6.23775 4.92156 6.00053 4.34957 6 3.753V2.253C6.00053 1.65642 6.23775 1.08443 6.65959 0.662593C7.08144 0.240751 7.65343 0.00352793 8.25 0.00299835H21.75C22.3466 0.00352793 22.9186 0.240751 23.3404 0.662593C23.7622 1.08443 23.9995 1.65642 24 2.253V3.753C23.9995 4.34957 23.7622 4.92156 23.3404 5.3434C22.9186 5.76525 22.3466 6.00247 21.75 6.003H8.25ZM8.25 1.503C8.05109 1.503 7.86032 1.58202 7.71967 1.72267C7.57902 1.86332 7.5 2.05409 7.5 2.253V3.753C7.5 4.167 7.836 4.503 8.25 4.503H21.75C21.9489 4.503 22.1397 4.42398 22.2803 4.28333C22.421 4.14268 22.5 3.95191 22.5 3.753V2.253C22.5 2.05409 22.421 1.86332 22.2803 1.72267C22.1397 1.58202 21.9489 1.503 21.75 1.503H8.25Z" fill="#111111"/>
<path d="M5.25 15.003C4.65343 15.0025 4.08144 14.7652 3.65959 14.3434C3.23775 13.9216 3.00053 13.3496 3 12.753V11.253C3.00053 10.6564 3.23775 10.0844 3.65959 9.66259C4.08144 9.24075 4.65343 9.00353 5.25 9.003H18.75C19.3466 9.00353 19.9186 9.24075 20.3404 9.66259C20.7622 10.0844 20.9995 10.6564 21 11.253V12.753C20.9995 13.3496 20.7622 13.9216 20.3404 14.3434C19.9186 14.7652 19.3466 15.0025 18.75 15.003H5.25ZM5.25 10.503C5.05109 10.503 4.86032 10.582 4.71967 10.7227C4.57902 10.8633 4.5 11.0541 4.5 11.253V12.753C4.5 13.167 4.836 13.503 5.25 13.503H18.75C18.9489 13.503 19.1397 13.424 19.2803 13.2833C19.421 13.1427 19.5 12.9519 19.5 12.753V11.253C19.5 11.0541 19.421 10.8633 19.2803 10.7227C19.1397 10.582 18.9489 10.503 18.75 10.503H5.25Z" fill="#111111"/>
<path d="M2.25 24.003C1.65343 24.0025 1.08144 23.7652 0.659595 23.3434C0.237753 22.9216 0.000529583 22.3496 0 21.753L0 20.253C0.000529583 19.6564 0.237753 19.0844 0.659595 18.6626C1.08144 18.2408 1.65343 18.0035 2.25 18.003H15.75C16.3466 18.0035 16.9186 18.2408 17.3404 18.6626C17.7622 19.0844 17.9995 19.6564 18 20.253V21.753C17.9995 22.3496 17.7622 22.9216 17.3404 23.3434C16.9186 23.7652 16.3466 24.0025 15.75 24.003H2.25ZM2.25 19.503C2.05109 19.503 1.86032 19.582 1.71967 19.7227C1.57902 19.8633 1.5 20.0541 1.5 20.253V21.753C1.5 22.167 1.836 22.503 2.25 22.503H15.75C15.9489 22.503 16.1397 22.424 16.2803 22.2833C16.421 22.1427 16.5 21.9519 16.5 21.753V20.253C16.5 20.0541 16.421 19.8633 16.2803 19.7227C16.1397 19.582 15.9489 19.503 15.75 19.503H2.25Z" fill="#111111"/>
</g>
<defs>
<clipPath id="clip0">
<path d="M0 0H24V24H0V0Z" fill="white"/>
</clipPath>
</defs>
</svg>
